<svg width="1427" height="1446" viewBox="0 0 1427 1446" fill="none" xmlns="http://www.w3.org/2000/svg">
<path d="M1284.5 729.5C1284.5 1041.53 1028.87 1294.5 713.5 1294.5C398.13 1294.5 142.5 1041.53 142.5 729.5C142.5 417.474 398.13 164.5 713.5 164.5C1028.87 164.5 1284.5 417.474 1284.5 729.5Z" stroke="white" stroke-width="3"/>
<circle cx="714.421" cy="150" r="150" fill="url(#paint0_linear_41_140)"/>
<circle cx="1014" cy="1296" r="150" fill="url(#paint1_linear_41_140)"/>
<circle cx="449" cy="1296" r="150" fill="url(#paint2_linear_41_140)"/>
<rect x="1427" y="415" width="529" height="281" rx="140.5" transform="rotate(90 1427 415)" fill="url(#paint3_linear_41_140)"/>
<rect y="944" width="529" height="281" rx="140.5" transform="rotate(-90 0 944)" fill="url(#paint4_linear_41_140)"/>
<defs>
<linearGradient id="paint0_linear_41_140" x1="714" y1="300" x2="714" y2="1.92706e-06" gradientUnits="userSpaceOnUse">
<stop stop-color="#000AFF"/>
<stop offset="1" stop-color="#D9D9D9" stop-opacity="0"/>
</linearGradient>
<linearGradient id="paint1_linear_41_140" x1="1082" y1="1433" x2="933.5" y2="1157" gradientUnits="userSpaceOnUse">
<stop stop-color="#000AFF"/>
<stop offset="1" stop-color="#D9D9D9" stop-opacity="0"/>
</linearGradient>
<linearGradient id="paint2_linear_41_140" x1="338" y1="1380.5" x2="559" y2="1105" gradientUnits="userSpaceOnUse">
<stop stop-color="#000AFF"/>
<stop offset="1" stop-color="#D9D9D9" stop-opacity="0"/>
</linearGradient>
<linearGradient id="paint3_linear_41_140" x1="1691.5" y1="415" x2="1691.5" y2="696" gradientUnits="userSpaceOnUse">
<stop stop-color="#000AFF"/>
<stop offset="1" stop-color="#D9D9D9" stop-opacity="0"/>
</linearGradient>
<linearGradient id="paint4_linear_41_140" x1="264.5" y1="944" x2="264.5" y2="1225" gradientUnits="userSpaceOnUse">
<stop stop-color="#000AFF"/>
<stop offset="1" stop-color="#D9D9D9" stop-opacity="0"/>
</linearGradient>
</defs>
</svg>
