<svg width="2458" height="847" viewBox="0 0 2458 847" fill="none" xmlns="http://www.w3.org/2000/svg">
<circle cx="150" cy="150" r="150" fill="url(#paint0_linear_41_130)"/>
<circle cx="1229" cy="150" r="150" fill="url(#paint1_linear_41_130)"/>
<circle cx="1654" cy="150" r="150" fill="url(#paint2_linear_41_130)"/>
<rect x="425" y="19" width="529" height="281" rx="140.5" fill="url(#paint3_linear_41_130)"/>
<rect x="1929" width="529" height="281" rx="140.5" fill="url(#paint4_linear_41_130)"/>
<path d="M52 442.308C52 442.308 210.5 442.308 336 442.308C461.5 442.308 452 312.308 439.5 483.308C427 654.308 503.5 442.308 545.5 442.308C587.5 442.308 849 442.308 849 442.308" stroke="#FEFEFE" stroke-width="20"/>
<path d="M1138 441.319C1138 441.319 1390.57 441.319 1590.55 441.319C1790.53 441.319 1775.39 311.288 1755.47 482.329C1735.55 653.37 1857.45 441.319 1924.38 441.319C1991.31 441.319 2408 441.319 2408 441.319" stroke="#FEFEFE" stroke-width="20"/>
<path d="M450.261 708.955C445.352 708.955 440.989 708.114 437.17 706.432C433.375 704.75 430.375 702.409 428.17 699.409C425.966 696.409 424.795 692.943 424.659 689.011H437.477C437.591 690.898 438.216 692.545 439.352 693.955C440.489 695.341 442 696.42 443.886 697.193C445.773 697.966 447.886 698.352 450.227 698.352C452.727 698.352 454.943 697.92 456.875 697.057C458.807 696.17 460.318 694.943 461.409 693.375C462.5 691.807 463.034 690 463.011 687.955C463.034 685.841 462.489 683.977 461.375 682.364C460.261 680.75 458.648 679.489 456.534 678.58C454.443 677.67 451.92 677.216 448.966 677.216H442.795V667.466H448.966C451.398 667.466 453.523 667.045 455.341 666.205C457.182 665.364 458.625 664.182 459.67 662.659C460.716 661.114 461.227 659.33 461.205 657.307C461.227 655.33 460.784 653.614 459.875 652.159C458.989 650.682 457.727 649.534 456.091 648.716C454.477 647.898 452.58 647.489 450.398 647.489C448.261 647.489 446.284 647.875 444.466 648.648C442.648 649.42 441.182 650.523 440.068 651.955C438.955 653.364 438.364 655.045 438.295 657H426.125C426.216 653.091 427.341 649.659 429.5 646.705C431.682 643.727 434.591 641.409 438.227 639.75C441.864 638.068 445.943 637.227 450.466 637.227C455.125 637.227 459.17 638.102 462.602 639.852C466.057 641.58 468.727 643.909 470.614 646.841C472.5 649.773 473.443 653.011 473.443 656.557C473.466 660.489 472.307 663.784 469.966 666.443C467.648 669.102 464.602 670.841 460.83 671.659V672.205C465.739 672.886 469.5 674.705 472.114 677.659C474.75 680.591 476.057 684.239 476.034 688.602C476.034 692.511 474.92 696.011 472.693 699.102C470.489 702.17 467.443 704.58 463.557 706.33C459.693 708.08 455.261 708.955 450.261 708.955Z" fill="#6C6C6C"/>
<path d="M1771.48 708.955C1766.93 708.955 1762.86 708.102 1759.27 706.398C1755.68 704.67 1752.83 702.307 1750.72 699.307C1748.63 696.307 1747.51 692.875 1747.38 689.011H1759.65C1759.88 691.875 1761.11 694.216 1763.36 696.034C1765.61 697.83 1768.32 698.727 1771.48 698.727C1773.95 698.727 1776.16 698.159 1778.09 697.023C1780.02 695.886 1781.55 694.307 1782.66 692.284C1783.77 690.261 1784.32 687.955 1784.3 685.364C1784.32 682.727 1783.76 680.386 1782.62 678.341C1781.49 676.295 1779.93 674.693 1777.95 673.534C1775.98 672.352 1773.7 671.761 1771.14 671.761C1769.05 671.739 1766.99 672.125 1764.97 672.92C1762.94 673.716 1761.34 674.761 1760.16 676.057L1748.74 674.182L1752.39 638.182H1792.89V648.75H1762.85L1760.84 667.261H1761.25C1762.55 665.739 1764.38 664.477 1766.74 663.477C1769.1 662.455 1771.69 661.943 1774.51 661.943C1778.74 661.943 1782.51 662.943 1785.83 664.943C1789.15 666.92 1791.76 669.648 1793.67 673.125C1795.58 676.602 1796.53 680.58 1796.53 685.057C1796.53 689.67 1795.47 693.784 1793.33 697.398C1791.22 700.989 1788.27 703.818 1784.5 705.886C1780.75 707.932 1776.41 708.955 1771.48 708.955Z" fill="#6C6C6C"/>
<defs>
<linearGradient id="paint0_linear_41_130" x1="150" y1="0" x2="150" y2="300" gradientUnits="userSpaceOnUse">
<stop stop-color="#000AFF"/>
<stop offset="1" stop-color="#D9D9D9" stop-opacity="0"/>
</linearGradient>
<linearGradient id="paint1_linear_41_130" x1="1229" y1="0" x2="1229" y2="300" gradientUnits="userSpaceOnUse">
<stop stop-color="#000AFF"/>
<stop offset="1" stop-color="#D9D9D9" stop-opacity="0"/>
</linearGradient>
<linearGradient id="paint2_linear_41_130" x1="1654" y1="0" x2="1654" y2="300" gradientUnits="userSpaceOnUse">
<stop stop-color="#000AFF"/>
<stop offset="1" stop-color="#D9D9D9" stop-opacity="0"/>
</linearGradient>
<linearGradient id="paint3_linear_41_130" x1="689.5" y1="19" x2="689.5" y2="300" gradientUnits="userSpaceOnUse">
<stop stop-color="#000AFF"/>
<stop offset="1" stop-color="#D9D9D9" stop-opacity="0"/>
</linearGradient>
<linearGradient id="paint4_linear_41_130" x1="2193.5" y1="0" x2="2193.5" y2="281" gradientUnits="userSpaceOnUse">
<stop stop-color="#000AFF"/>
<stop offset="1" stop-color="#D9D9D9" stop-opacity="0"/>
</linearGradient>
</defs>
</svg>
