<svg width="157" height="1210" viewBox="0 0 157 1210" fill="none" xmlns="http://www.w3.org/2000/svg">
<path d="M83 147C123.869 147 157 114.093 157 73.5C157 32.9071 123.869 0 83 0C42.1309 0 9 32.9071 9 73.5C9 114.093 42.1309 147 83 147Z" fill="white"/>
<ellipse cx="73.5" cy="74" rx="73.5" ry="74" transform="matrix(0 1 1 0 5 531)" fill="white"/>
<ellipse cx="74" cy="73.5" rx="74" ry="73.5" transform="matrix(0 1 1 0 0 740)" fill="white"/>
<rect width="260" height="138" rx="69" transform="matrix(0 1 1 0 9 209)" fill="white"/>
<rect width="260" height="138" rx="69" transform="matrix(0 1 1 0 0 950)" fill="white"/>
</svg>
