<svg width="194" height="158" viewBox="0 0 194 158" fill="none" xmlns="http://www.w3.org/2000/svg">
<rect width="194" height="158" fill="#1A1A1A"/>
<path d="M25.4134 152.057C25.1861 152.057 24.9854 151.999 24.8114 151.885C24.6374 151.769 24.5013 151.605 24.4031 151.395C24.3048 151.183 24.2557 150.932 24.2557 150.643C24.2557 150.357 24.3048 150.108 24.4031 149.898C24.5013 149.687 24.638 149.524 24.8132 149.409C24.9884 149.295 25.1908 149.237 25.4205 149.237C25.598 149.237 25.7383 149.267 25.8413 149.326C25.9454 149.384 26.0247 149.45 26.0792 149.525C26.1348 149.598 26.178 149.659 26.2088 149.706H26.2443V148.364H26.6634V152H26.2585V151.581H26.2088C26.178 151.631 26.1342 151.693 26.0774 151.769C26.0206 151.844 25.9395 151.911 25.8342 151.97C25.7288 152.028 25.5885 152.057 25.4134 152.057ZM25.4702 151.68C25.6383 151.68 25.7803 151.637 25.8963 151.549C26.0123 151.46 26.1005 151.338 26.1609 151.181C26.2212 151.024 26.2514 150.842 26.2514 150.636C26.2514 150.433 26.2218 150.255 26.1626 150.102C26.1035 149.948 26.0159 149.828 25.8999 149.743C25.7839 149.657 25.6406 149.614 25.4702 149.614C25.2926 149.614 25.1446 149.659 25.0263 149.75C24.9091 149.84 24.8209 149.963 24.7617 150.118C24.7037 150.272 24.6747 150.445 24.6747 150.636C24.6747 150.83 24.7043 151.007 24.7635 151.165C24.8239 151.323 24.9126 151.448 25.0298 151.542C25.1482 151.634 25.295 151.68 25.4702 151.68ZM29.2077 150.885V149.273H29.6268V152H29.2077V151.538H29.1793C29.1154 151.677 29.016 151.795 28.881 151.892C28.7461 151.988 28.5756 152.036 28.3697 152.036C28.1992 152.036 28.0477 151.998 27.9151 151.924C27.7826 151.848 27.6784 151.734 27.6026 151.583C27.5269 151.43 27.489 151.238 27.489 151.006V149.273H27.908V150.977C27.908 151.176 27.9637 151.335 28.0749 151.453C28.1874 151.571 28.3306 151.631 28.5046 151.631C28.6088 151.631 28.7147 151.604 28.8224 151.551C28.9313 151.498 29.0225 151.416 29.0959 151.306C29.1705 151.196 29.2077 151.055 29.2077 150.885ZM31.5803 149.273V149.628H30.167V149.273H31.5803ZM30.5789 148.619H30.998V151.219C30.998 151.337 31.0151 151.426 31.0494 151.485C31.085 151.543 31.1299 151.582 31.1844 151.602C31.24 151.621 31.2986 151.631 31.3602 151.631C31.4063 151.631 31.4442 151.628 31.4738 151.624C31.5034 151.618 31.5271 151.613 31.5448 151.609L31.6301 151.986C31.6017 151.996 31.562 152.007 31.5111 152.018C31.4602 152.03 31.3957 152.036 31.3176 152.036C31.1992 152.036 31.0832 152.01 30.9695 151.959C30.8571 151.908 30.7636 151.831 30.689 151.727C30.6156 151.622 30.5789 151.491 30.5789 151.332V148.619ZM32.4806 153.023C32.4095 153.023 32.3462 153.017 32.2906 153.005C32.2349 152.994 32.1965 152.984 32.1752 152.973L32.2817 152.604C32.3835 152.63 32.4735 152.639 32.5516 152.632C32.6297 152.625 32.699 152.59 32.7593 152.527C32.8209 152.466 32.8771 152.366 32.928 152.227L33.0061 152.014L31.9976 149.273H32.4521L33.205 151.446H33.2334L33.9862 149.273H34.4408L33.2831 152.398C33.231 152.539 33.1665 152.655 33.0896 152.748C33.0126 152.841 32.9233 152.91 32.8215 152.955C32.7209 153 32.6072 153.023 32.4806 153.023ZM37.5081 152.057C37.2524 152.057 37.0322 151.996 36.8476 151.876C36.6629 151.755 36.5209 151.589 36.4214 151.377C36.322 151.165 36.2723 150.923 36.2723 150.651C36.2723 150.374 36.3232 150.129 36.425 149.917C36.528 149.704 36.6712 149.538 36.8547 149.418C37.0393 149.298 37.2548 149.237 37.501 149.237C37.6927 149.237 37.8656 149.273 38.0194 149.344C38.1733 149.415 38.2994 149.514 38.3976 149.642C38.4959 149.77 38.5568 149.919 38.5805 150.089H38.1615C38.1295 149.965 38.0585 149.855 37.9484 149.759C37.8395 149.662 37.6927 149.614 37.5081 149.614C37.3447 149.614 37.2015 149.656 37.0784 149.741C36.9565 149.826 36.8612 149.944 36.7925 150.098C36.7251 150.251 36.6913 150.43 36.6913 150.636C36.6913 150.847 36.7245 151.031 36.7907 151.187C36.8582 151.343 36.9529 151.464 37.0748 151.551C37.1979 151.637 37.3424 151.68 37.5081 151.68C37.617 151.68 37.7158 151.661 37.8046 151.624C37.8934 151.586 37.9685 151.531 38.0301 151.46C38.0916 151.389 38.1354 151.304 38.1615 151.205H38.5805C38.5568 151.366 38.4983 151.511 38.4047 151.64C38.3124 151.767 38.1899 151.869 38.0372 151.945C37.8857 152.02 37.7093 152.057 37.5081 152.057ZM39.463 153.023C39.392 153.023 39.3286 153.017 39.273 153.005C39.2174 152.994 39.1789 152.984 39.1576 152.973L39.2641 152.604C39.3659 152.63 39.4559 152.639 39.534 152.632C39.6121 152.625 39.6814 152.59 39.7417 152.527C39.8033 152.466 39.8595 152.366 39.9104 152.227L39.9885 152.014L38.98 149.273H39.4346L40.1874 151.446H40.2158L40.9687 149.273H41.4232L40.2655 152.398C40.2135 152.539 40.1489 152.655 40.072 152.748C39.9951 152.841 39.9057 152.91 39.8039 152.955C39.7033 153 39.5896 153.023 39.463 153.023ZM42.9866 152.057C42.7309 152.057 42.5107 151.996 42.3261 151.876C42.1414 151.755 41.9994 151.589 41.8999 151.377C41.8005 151.165 41.7508 150.923 41.7508 150.651C41.7508 150.374 41.8017 150.129 41.9035 149.917C42.0065 149.704 42.1497 149.538 42.3332 149.418C42.5178 149.298 42.7333 149.237 42.9795 149.237C43.1713 149.237 43.3441 149.273 43.498 149.344C43.6518 149.415 43.7779 149.514 43.8762 149.642C43.9744 149.77 44.0354 149.919 44.059 150.089H43.64C43.608 149.965 43.537 149.855 43.4269 149.759C43.318 149.662 43.1713 149.614 42.9866 149.614C42.8232 149.614 42.68 149.656 42.5569 149.741C42.435 149.826 42.3397 149.944 42.271 150.098C42.2036 150.251 42.1698 150.43 42.1698 150.636C42.1698 150.847 42.203 151.031 42.2693 151.187C42.3367 151.343 42.4314 151.464 42.5534 151.551C42.6765 151.637 42.8209 151.68 42.9866 151.68C43.0955 151.68 43.1943 151.661 43.2831 151.624C43.3719 151.586 43.4471 151.531 43.5086 151.46C43.5702 151.389 43.614 151.304 43.64 151.205H44.059C44.0354 151.366 43.9768 151.511 43.8833 151.64C43.7909 151.767 43.6684 151.869 43.5157 151.945C43.3642 152.02 43.1878 152.057 42.9866 152.057ZM45.0906 148.364V152H44.6716V148.364H45.0906ZM47.0016 152.057C46.7388 152.057 46.5121 151.999 46.3216 151.883C46.1322 151.766 45.986 151.602 45.883 151.393C45.7812 151.182 45.7303 150.937 45.7303 150.658C45.7303 150.378 45.7812 150.132 45.883 149.919C45.986 149.705 46.1292 149.538 46.3127 149.418C46.4973 149.298 46.7128 149.237 46.959 149.237C47.101 149.237 47.2413 149.261 47.3798 149.308C47.5183 149.356 47.6444 149.433 47.758 149.539C47.8716 149.644 47.9622 149.784 48.0297 149.958C48.0971 150.132 48.1309 150.346 48.1309 150.601V150.778H46.0286V150.416H47.7047C47.7047 150.262 47.6739 150.125 47.6124 150.004C47.552 149.884 47.4656 149.788 47.3532 149.718C47.2419 149.649 47.1105 149.614 46.959 149.614C46.7921 149.614 46.6477 149.655 46.5257 149.738C46.405 149.82 46.3121 149.926 46.247 150.058C46.1819 150.189 46.1493 150.33 46.1493 150.48V150.722C46.1493 150.928 46.1848 151.102 46.2559 151.245C46.3281 151.387 46.4281 151.496 46.5559 151.57C46.6838 151.644 46.8323 151.68 47.0016 151.68C47.1117 151.68 47.2111 151.665 47.2999 151.634C47.3899 151.602 47.4674 151.555 47.5325 151.492C47.5976 151.428 47.6479 151.349 47.6834 151.254L48.0882 151.368C48.0456 151.505 47.974 151.626 47.8734 151.73C47.7728 151.833 47.6485 151.914 47.5005 151.972C47.3526 152.028 47.1863 152.057 47.0016 152.057Z" fill="white"/>
<rect x="18" y="15" width="158" height="129" fill="black"/>
<line x1="18" y1="143.5" x2="52" y2="143.5" stroke="#3C3C3C" stroke-dasharray="2 2"/>
<line x1="54.5" y1="16" x2="54.5" y2="144" stroke="#3C3C3C" stroke-dasharray="2 2"/>
<line x1="97.5" y1="15" x2="97.5" y2="143" stroke="#3C3C3C" stroke-dasharray="2 2"/>
<line x1="133.5" y1="15" x2="133.5" y2="143" stroke="#3C3C3C" stroke-dasharray="2 2"/>
<line x1="18" y1="15.5" x2="54" y2="15.5" stroke="white"/>
<line x1="97" y1="14.5" x2="133" y2="14.5" stroke="white"/>
<line x1="54" y1="143.5" x2="97" y2="143.5" stroke="white"/>
<line x1="133" y1="143.5" x2="176" y2="143.5" stroke="white"/>
</svg>
