<svg width="420" height="161" viewBox="0 0 420 161" fill="none" xmlns="http://www.w3.org/2000/svg">
<path d="M307.336 112.066V58.1C307.336 44.0968 318.687 32.7449 332.691 32.7449H352.834C365.295 32.7449 376.388 40.6374 380.473 52.4093L413.269 146.611C414.401 149.86 411.988 153.255 408.547 153.255H382.176C375.414 153.255 369.487 148.73 367.706 142.207L354.584 94.1708C349.704 76.3562 323.385 80.2988 323.94 98.7613L324.735 125.256C324.735 141.435 314.737 155.029 298.559 155L232.788 154.23C215.945 154.23 204.616 136.974 211.313 121.519C218.009 106.066 218.554 104.81 218.554 104.81C218.554 104.81 218.554 104.81 218.554 104.81C220.545 100.214 217.65 94.9779 212.699 94.2214C194.005 91.3648 175.889 102.084 169.394 119.845L162.439 138.863C159.064 148.092 150.284 154.23 140.458 154.23H48.785C33.5288 154.23 24.1792 137.503 32.1719 124.508L81.3952 44.4773C86.3669 36.6874 80.7719 26.4791 71.5307 26.4791H11.8591C7.46109 26.4791 4.63524 21.8089 6.67595 17.913L10.7257 10.1816C12.0723 7.61083 14.7345 6 17.6366 6H90.7456C104.474 6 112.889 21.0492 105.7 32.7449L56.9487 112.066C52.9553 118.564 57.6303 126.924 65.257 126.924H129.677C141.619 126.924 152.363 119.665 156.819 108.585L164.572 89.3104C170.806 73.8108 184.274 62.376 200.579 58.7389L238.454 50.2907C248.407 48.0706 256.24 58.7575 251.127 67.5805L232.022 113.421C229.345 119.844 234.064 126.924 241.024 126.924L285.881 127.694C302.039 127.694 307.336 128.224 307.336 112.066Z" stroke="white" stroke-width="12"/>
<path d="M307.336 58.1V112.066C307.336 128.224 302.039 127.694 285.881 127.694L241.024 126.924C234.064 126.924 229.345 119.844 232.022 113.421L251.127 67.5805C256.24 58.7575 248.407 48.0706 238.454 50.2907L200.579 58.7389C184.274 62.376 170.806 73.8108 164.572 89.3104L156.819 108.585C152.363 119.665 141.619 126.924 129.677 126.924H65.257C57.6303 126.924 52.9553 118.564 56.9487 112.066L105.7 32.7449C112.889 21.0492 104.474 6 90.7456 6H17.6366C14.7345 6 12.0723 7.61083 10.7257 10.1816L6.67595 17.913C4.63524 21.8089 7.46109 26.4791 11.8591 26.4791H71.5307C80.7719 26.4791 86.3669 36.6874 81.3952 44.4773L32.1719 124.508C24.1792 137.503 33.5288 154.23 48.785 154.23H140.458C150.284 154.23 159.064 148.092 162.439 138.863L169.394 119.845C175.889 102.084 194.005 91.3648 212.699 94.2214C217.65 94.9779 220.545 100.214 218.554 104.81L211.313 121.519C204.616 136.974 215.945 154.23 232.788 154.23L298.559 155C314.737 155.029 324.735 141.435 324.735 125.256L323.94 98.7613C323.385 80.2988 349.704 76.3562 354.584 94.1708L367.706 142.207C369.487 148.73 375.414 153.255 382.176 153.255H408.547C411.988 153.255 414.401 149.86 413.269 146.611L380.473 52.4093C376.388 40.6374 365.295 32.7449 352.834 32.7449H332.691C318.687 32.7449 307.336 44.0968 307.336 58.1Z" stroke="#131313" stroke-width="4"/>
</svg>
