<svg width="496" height="235" viewBox="0 0 496 235" fill="none" xmlns="http://www.w3.org/2000/svg">
<path d="M0 49C0 21.938 21.938 0 49 0H447C474.062 0 496 21.938 496 49V186C496 213.062 474.062 235 447 235H49C21.9381 235 0 213.062 0 186V49Z" fill="#ABABAB"/>
<path d="M344.336 104.1V158.066C344.336 174.224 339.039 173.694 322.881 173.694L278.024 172.924C271.064 172.924 266.345 165.844 269.022 159.421L288.127 113.58C293.24 104.757 285.407 94.0706 275.454 96.2907L237.579 104.739C221.274 108.376 207.806 119.811 201.572 135.31L193.819 154.585C189.363 165.665 178.619 172.924 166.677 172.924H102.257C94.6303 172.924 89.9553 164.564 93.9487 158.066L142.7 78.7449C149.889 67.0492 141.474 52 127.746 52H54.6366C51.7345 52 49.0723 53.6108 47.7257 56.1816L43.676 63.913C41.6352 67.8089 44.4611 72.4791 48.8591 72.4791H108.531C117.772 72.4791 123.367 82.6874 118.395 90.4773L69.1719 170.508C61.1792 183.503 70.5288 200.23 85.785 200.23H177.458C187.284 200.23 196.064 194.092 199.439 184.863L206.394 165.845C212.889 148.084 231.005 137.365 249.699 140.221C254.65 140.978 257.545 146.214 255.554 150.81L248.313 167.519C241.616 182.974 252.945 200.23 269.788 200.23L335.559 201C351.737 201.029 361.735 187.435 361.735 171.256L360.94 144.761C360.385 126.299 386.704 122.356 391.584 140.171L404.706 188.207C406.487 194.73 412.414 199.255 419.176 199.255H445.547C448.988 199.255 451.401 195.86 450.269 192.611L417.473 98.4093C413.388 86.6374 402.295 78.7449 389.834 78.7449H369.691C355.687 78.7449 344.336 90.0968 344.336 104.1Z" fill="black"/>
<path d="M344.336 158.066V104.1C344.336 90.0968 355.687 78.7449 369.691 78.7449H389.834C402.295 78.7449 413.388 86.6374 417.473 98.4093L450.269 192.611C451.401 195.86 448.988 199.255 445.547 199.255H419.176C412.414 199.255 406.487 194.73 404.706 188.207L391.584 140.171C386.704 122.356 360.385 126.299 360.94 144.761L361.735 171.256C361.735 187.435 351.737 201.029 335.559 201L269.788 200.23C252.945 200.23 241.616 182.974 248.313 167.519C255.009 152.066 255.554 150.81 255.554 150.81C255.554 150.81 255.554 150.81 255.554 150.81C257.545 146.214 254.65 140.978 249.699 140.221C231.005 137.365 212.889 148.084 206.394 165.845L199.439 184.863C196.064 194.092 187.284 200.23 177.458 200.23H85.785C70.5288 200.23 61.1792 183.503 69.1719 170.508L118.395 90.4773C123.367 82.6874 117.772 72.4791 108.531 72.4791H48.8591C44.4611 72.4791 41.6352 67.8089 43.676 63.913L47.7257 56.1816C49.0723 53.6108 51.7345 52 54.6366 52H127.746C141.474 52 149.889 67.0492 142.7 78.7449L93.9487 158.066C89.9553 164.564 94.6303 172.924 102.257 172.924H166.677C178.619 172.924 189.363 165.665 193.819 154.585L201.572 135.31C207.806 119.811 221.274 108.376 237.579 104.739L275.454 96.2907C285.407 94.0706 293.24 104.757 288.127 113.58L269.022 159.421C266.345 165.844 271.064 172.924 278.024 172.924L322.881 173.694C339.039 173.694 344.336 174.224 344.336 158.066Z" stroke="#0B0A0A" stroke-width="12"/>
<circle cx="234" cy="59" r="15" fill="black"/>
<rect x="264" y="44" width="60" height="30" rx="15" fill="black"/>
</svg>
