<svg width="420" height="162" viewBox="0 0 420 162" fill="none" xmlns="http://www.w3.org/2000/svg">
<path d="M307.336 59.1V113.066C307.336 129.224 302.039 128.694 285.881 128.694L241.024 127.924C234.064 127.924 229.345 120.844 232.022 114.421L251.127 68.5805C256.24 59.7575 248.407 49.0706 238.454 51.2907L200.579 59.7389C184.274 63.376 170.806 74.8108 164.572 90.3104L156.819 109.585C152.363 120.665 141.619 127.924 129.677 127.924H65.257C57.6303 127.924 52.9553 119.564 56.9487 113.066L105.7 33.7449C112.889 22.0492 104.474 7 90.7456 7H17.6366C14.7345 7 12.0723 8.61083 10.7257 11.1816L6.67595 18.913C4.63524 22.8089 7.46109 27.4791 11.8591 27.4791H71.5307C80.7719 27.4791 86.3669 37.6874 81.3952 45.4773L32.1719 125.508C24.1792 138.503 33.5288 155.23 48.785 155.23H140.458C150.284 155.23 159.064 149.092 162.439 139.863L169.394 120.845C175.889 103.084 194.005 92.3648 212.699 95.2214C217.65 95.9779 220.545 101.214 218.554 105.81L211.313 122.519C204.616 137.974 215.945 155.23 232.788 155.23L298.559 156C314.737 156.029 324.735 142.435 324.735 126.256L323.94 99.7613C323.385 81.2988 349.704 77.3562 354.584 95.1708L367.706 143.207C369.487 149.73 375.414 154.255 382.176 154.255H408.547C411.988 154.255 414.401 150.86 413.269 147.611L380.473 53.4093C376.388 41.6374 365.295 33.7449 352.834 33.7449H332.691C318.687 33.7449 307.336 45.0968 307.336 59.1Z" fill="black"/>
<path d="M307.336 113.066V59.1C307.336 45.0968 318.687 33.7449 332.691 33.7449H352.834C365.295 33.7449 376.388 41.6374 380.473 53.4093L413.269 147.611C414.401 150.86 411.988 154.255 408.547 154.255H382.176C375.414 154.255 369.487 149.73 367.706 143.207L354.584 95.1708C349.704 77.3562 323.385 81.2988 323.94 99.7613L324.735 126.256C324.735 142.435 314.737 156.029 298.559 156L232.788 155.23C215.945 155.23 204.616 137.974 211.313 122.519C218.009 107.066 218.554 105.81 218.554 105.81C218.554 105.81 218.554 105.81 218.554 105.81C220.545 101.214 217.65 95.9779 212.699 95.2214C194.005 92.3648 175.889 103.084 169.394 120.845L162.439 139.863C159.064 149.092 150.284 155.23 140.458 155.23H48.785C33.5288 155.23 24.1792 138.503 32.1719 125.508L81.3952 45.4773C86.3669 37.6874 80.7719 27.4791 71.5307 27.4791H11.8591C7.46109 27.4791 4.63524 22.8089 6.67595 18.913L10.7257 11.1816C12.0723 8.61083 14.7345 7 17.6366 7H90.7456C104.474 7 112.889 22.0492 105.7 33.7449L56.9487 113.066C52.9553 119.564 57.6303 127.924 65.257 127.924H129.677C141.619 127.924 152.363 120.665 156.819 109.585L164.572 90.3104C170.806 74.8108 184.274 63.376 200.579 59.7389L238.454 51.2907C248.407 49.0706 256.24 59.7575 251.127 68.5805L232.022 114.421C229.345 120.844 234.064 127.924 241.024 127.924L285.881 128.694C302.039 128.694 307.336 129.224 307.336 113.066Z" stroke="#0B0A0A" stroke-width="12"/>
<circle cx="181" cy="15" r="15" fill="black"/>
<rect x="211" width="60" height="30" rx="15" fill="black"/>
</svg>
